<svg width="119" height="113" viewBox="0 0 119 113" fill="none" xmlns="http://www.w3.org/2000/svg">
<path d="M3.83871 1.66176C3.83871 2.57953 2.97939 3.32353 1.91935 3.32353C0.859324 3.32353 0 2.57953 0 1.66176C0 0.743997 0.859324 0 1.91935 0C2.97939 0 3.83871 0.743997 3.83871 1.66176Z" fill="#6D64E8"/>
<path d="M15.3548 1.66176C15.3548 2.57953 14.4955 3.32353 13.4355 3.32353C12.3755 3.32353 11.5161 2.57953 11.5161 1.66176C11.5161 0.743997 12.3755 0 13.4355 0C14.4955 0 15.3548 0.743997 15.3548 1.66176Z" fill="#6D64E8"/>
<path d="M26.871 1.66176C26.871 2.57953 26.0116 3.32353 24.9516 3.32353C23.8916 3.32353 23.0323 2.57953 23.0323 1.66176C23.0323 0.743997 23.8916 0 24.9516 0C26.0116 0 26.871 0.743997 26.871 1.66176Z" fill="#6D64E8"/>
<path d="M38.3871 1.66176C38.3871 2.57953 37.5278 3.32353 36.4677 3.32353C35.4077 3.32353 34.5484 2.57953 34.5484 1.66176C34.5484 0.743997 35.4077 0 36.4677 0C37.5278 0 38.3871 0.743997 38.3871 1.66176Z" fill="#6D64E8"/>
<path d="M49.9032 1.66176C49.9032 2.57953 49.0439 3.32353 47.9839 3.32353C46.9238 3.32353 46.0645 2.57953 46.0645 1.66176C46.0645 0.743997 46.9238 0 47.9839 0C49.0439 0 49.9032 0.743997 49.9032 1.66176Z" fill="#6D64E8"/>
<path d="M61.4194 1.66176C61.4194 2.57953 60.56 3.32353 59.5 3.32353C58.44 3.32353 57.5806 2.57953 57.5806 1.66176C57.5806 0.743997 58.44 0 59.5 0C60.56 0 61.4194 0.743997 61.4194 1.66176Z" fill="#6D64E8"/>
<path d="M72.9355 1.66176C72.9355 2.57953 72.0762 3.32353 71.0161 3.32353C69.9561 3.32353 69.0968 2.57953 69.0968 1.66176C69.0968 0.743997 69.9561 0 71.0161 0C72.0762 0 72.9355 0.743997 72.9355 1.66176Z" fill="#6D64E8"/>
<path d="M84.4516 1.66176C84.4516 2.57953 83.5923 3.32353 82.5323 3.32353C81.4722 3.32353 80.6129 2.57953 80.6129 1.66176C80.6129 0.743997 81.4722 0 82.5323 0C83.5923 0 84.4516 0.743997 84.4516 1.66176Z" fill="#6D64E8"/>
<path d="M95.9677 1.66176C95.9677 2.57953 95.1084 3.32353 94.0484 3.32353C92.9884 3.32353 92.129 2.57953 92.129 1.66176C92.129 0.743997 92.9884 0 94.0484 0C95.1084 0 95.9677 0.743997 95.9677 1.66176Z" fill="#6D64E8"/>
<path d="M107.484 1.66176C107.484 2.57953 106.625 3.32353 105.565 3.32353C104.504 3.32353 103.645 2.57953 103.645 1.66176C103.645 0.743997 104.504 0 105.565 0C106.625 0 107.484 0.743997 107.484 1.66176Z" fill="#6D64E8"/>
<path d="M119 1.66176C119 2.57953 118.141 3.32353 117.081 3.32353C116.021 3.32353 115.161 2.57953 115.161 1.66176C115.161 0.743997 116.021 0 117.081 0C118.141 0 119 0.743997 119 1.66176Z" fill="#6D64E8"/>
<path d="M3.83871 11.6324C3.83871 12.5501 2.97939 13.2941 1.91935 13.2941C0.859324 13.2941 0 12.5501 0 11.6324C0 10.7146 0.859324 9.97059 1.91935 9.97059C2.97939 9.97059 3.83871 10.7146 3.83871 11.6324Z" fill="#6D64E8"/>
<path d="M15.3548 11.6324C15.3548 12.5501 14.4955 13.2941 13.4355 13.2941C12.3755 13.2941 11.5161 12.5501 11.5161 11.6324C11.5161 10.7146 12.3755 9.97059 13.4355 9.97059C14.4955 9.97059 15.3548 10.7146 15.3548 11.6324Z" fill="#6D64E8"/>
<path d="M26.871 11.6324C26.871 12.5501 26.0116 13.2941 24.9516 13.2941C23.8916 13.2941 23.0323 12.5501 23.0323 11.6324C23.0323 10.7146 23.8916 9.97059 24.9516 9.97059C26.0116 9.97059 26.871 10.7146 26.871 11.6324Z" fill="#6D64E8"/>
<path d="M38.3871 11.6324C38.3871 12.5501 37.5278 13.2941 36.4677 13.2941C35.4077 13.2941 34.5484 12.5501 34.5484 11.6324C34.5484 10.7146 35.4077 9.97059 36.4677 9.97059C37.5278 9.97059 38.3871 10.7146 38.3871 11.6324Z" fill="#6D64E8"/>
<path d="M49.9032 11.6324C49.9032 12.5501 49.0439 13.2941 47.9839 13.2941C46.9238 13.2941 46.0645 12.5501 46.0645 11.6324C46.0645 10.7146 46.9238 9.97059 47.9839 9.97059C49.0439 9.97059 49.9032 10.7146 49.9032 11.6324Z" fill="#6D64E8"/>
<path d="M61.4194 11.6324C61.4194 12.5501 60.56 13.2941 59.5 13.2941C58.44 13.2941 57.5806 12.5501 57.5806 11.6324C57.5806 10.7146 58.44 9.97059 59.5 9.97059C60.56 9.97059 61.4194 10.7146 61.4194 11.6324Z" fill="#6D64E8"/>
<path d="M72.9355 11.6324C72.9355 12.5501 72.0762 13.2941 71.0161 13.2941C69.9561 13.2941 69.0968 12.5501 69.0968 11.6324C69.0968 10.7146 69.9561 9.97059 71.0161 9.97059C72.0762 9.97059 72.9355 10.7146 72.9355 11.6324Z" fill="#6D64E8"/>
<path d="M84.4516 11.6324C84.4516 12.5501 83.5923 13.2941 82.5323 13.2941C81.4722 13.2941 80.6129 12.5501 80.6129 11.6324C80.6129 10.7146 81.4722 9.97059 82.5323 9.97059C83.5923 9.97059 84.4516 10.7146 84.4516 11.6324Z" fill="#6D64E8"/>
<path d="M95.9677 11.6324C95.9677 12.5501 95.1084 13.2941 94.0484 13.2941C92.9884 13.2941 92.129 12.5501 92.129 11.6324C92.129 10.7146 92.9884 9.97059 94.0484 9.97059C95.1084 9.97059 95.9677 10.7146 95.9677 11.6324Z" fill="#6D64E8"/>
<path d="M107.484 11.6324C107.484 12.5501 106.625 13.2941 105.565 13.2941C104.504 13.2941 103.645 12.5501 103.645 11.6324C103.645 10.7146 104.504 9.97059 105.565 9.97059C106.625 9.97059 107.484 10.7146 107.484 11.6324Z" fill="#6D64E8"/>
<path d="M119 11.6324C119 12.5501 118.141 13.2941 117.081 13.2941C116.021 13.2941 115.161 12.5501 115.161 11.6324C115.161 10.7146 116.021 9.97059 117.081 9.97059C118.141 9.97059 119 10.7146 119 11.6324Z" fill="#6D64E8"/>
<path d="M3.83871 21.6029C3.83871 22.5207 2.97939 23.2647 1.91935 23.2647C0.859324 23.2647 0 22.5207 0 21.6029C0 20.6852 0.859324 19.9412 1.91935 19.9412C2.97939 19.9412 3.83871 20.6852 3.83871 21.6029Z" fill="#6D64E8"/>
<path d="M15.3548 21.6029C15.3548 22.5207 14.4955 23.2647 13.4355 23.2647C12.3755 23.2647 11.5161 22.5207 11.5161 21.6029C11.5161 20.6852 12.3755 19.9412 13.4355 19.9412C14.4955 19.9412 15.3548 20.6852 15.3548 21.6029Z" fill="#6D64E8"/>
<path d="M26.871 21.6029C26.871 22.5207 26.0116 23.2647 24.9516 23.2647C23.8916 23.2647 23.0323 22.5207 23.0323 21.6029C23.0323 20.6852 23.8916 19.9412 24.9516 19.9412C26.0116 19.9412 26.871 20.6852 26.871 21.6029Z" fill="#6D64E8"/>
<path d="M38.3871 21.6029C38.3871 22.5207 37.5278 23.2647 36.4677 23.2647C35.4077 23.2647 34.5484 22.5207 34.5484 21.6029C34.5484 20.6852 35.4077 19.9412 36.4677 19.9412C37.5278 19.9412 38.3871 20.6852 38.3871 21.6029Z" fill="#6D64E8"/>
<path d="M49.9032 21.6029C49.9032 22.5207 49.0439 23.2647 47.9839 23.2647C46.9238 23.2647 46.0645 22.5207 46.0645 21.6029C46.0645 20.6852 46.9238 19.9412 47.9839 19.9412C49.0439 19.9412 49.9032 20.6852 49.9032 21.6029Z" fill="#6D64E8"/>
<path d="M61.4194 21.6029C61.4194 22.5207 60.56 23.2647 59.5 23.2647C58.44 23.2647 57.5806 22.5207 57.5806 21.6029C57.5806 20.6852 58.44 19.9412 59.5 19.9412C60.56 19.9412 61.4194 20.6852 61.4194 21.6029Z" fill="#6D64E8"/>
<path d="M72.9355 21.6029C72.9355 22.5207 72.0762 23.2647 71.0161 23.2647C69.9561 23.2647 69.0968 22.5207 69.0968 21.6029C69.0968 20.6852 69.9561 19.9412 71.0161 19.9412C72.0762 19.9412 72.9355 20.6852 72.9355 21.6029Z" fill="#6D64E8"/>
<path d="M84.4516 21.6029C84.4516 22.5207 83.5923 23.2647 82.5323 23.2647C81.4722 23.2647 80.6129 22.5207 80.6129 21.6029C80.6129 20.6852 81.4722 19.9412 82.5323 19.9412C83.5923 19.9412 84.4516 20.6852 84.4516 21.6029Z" fill="#6D64E8"/>
<path d="M95.9677 21.6029C95.9677 22.5207 95.1084 23.2647 94.0484 23.2647C92.9884 23.2647 92.129 22.5207 92.129 21.6029C92.129 20.6852 92.9884 19.9412 94.0484 19.9412C95.1084 19.9412 95.9677 20.6852 95.9677 21.6029Z" fill="#6D64E8"/>
<path d="M107.484 21.6029C107.484 22.5207 106.625 23.2647 105.565 23.2647C104.504 23.2647 103.645 22.5207 103.645 21.6029C103.645 20.6852 104.504 19.9412 105.565 19.9412C106.625 19.9412 107.484 20.6852 107.484 21.6029Z" fill="#6D64E8"/>
<path d="M119 21.6029C119 22.5207 118.141 23.2647 117.081 23.2647C116.021 23.2647 115.161 22.5207 115.161 21.6029C115.161 20.6852 116.021 19.9412 117.081 19.9412C118.141 19.9412 119 20.6852 119 21.6029Z" fill="#6D64E8"/>
<path d="M3.83871 31.5735C3.83871 32.4913 2.97939 33.2353 1.91935 33.2353C0.859324 33.2353 0 32.4913 0 31.5735C0 30.6558 0.859324 29.9118 1.91935 29.9118C2.97939 29.9118 3.83871 30.6558 3.83871 31.5735Z" fill="#6D64E8"/>
<path d="M15.3548 31.5735C15.3548 32.4913 14.4955 33.2353 13.4355 33.2353C12.3755 33.2353 11.5161 32.4913 11.5161 31.5735C11.5161 30.6558 12.3755 29.9118 13.4355 29.9118C14.4955 29.9118 15.3548 30.6558 15.3548 31.5735Z" fill="#6D64E8"/>
<path d="M26.871 31.5735C26.871 32.4913 26.0116 33.2353 24.9516 33.2353C23.8916 33.2353 23.0323 32.4913 23.0323 31.5735C23.0323 30.6558 23.8916 29.9118 24.9516 29.9118C26.0116 29.9118 26.871 30.6558 26.871 31.5735Z" fill="#6D64E8"/>
<path d="M38.3871 31.5735C38.3871 32.4913 37.5278 33.2353 36.4677 33.2353C35.4077 33.2353 34.5484 32.4913 34.5484 31.5735C34.5484 30.6558 35.4077 29.9118 36.4677 29.9118C37.5278 29.9118 38.3871 30.6558 38.3871 31.5735Z" fill="#6D64E8"/>
<path d="M49.9032 31.5735C49.9032 32.4913 49.0439 33.2353 47.9839 33.2353C46.9238 33.2353 46.0645 32.4913 46.0645 31.5735C46.0645 30.6558 46.9238 29.9118 47.9839 29.9118C49.0439 29.9118 49.9032 30.6558 49.9032 31.5735Z" fill="#6D64E8"/>
<path d="M61.4194 31.5735C61.4194 32.4913 60.56 33.2353 59.5 33.2353C58.44 33.2353 57.5806 32.4913 57.5806 31.5735C57.5806 30.6558 58.44 29.9118 59.5 29.9118C60.56 29.9118 61.4194 30.6558 61.4194 31.5735Z" fill="#6D64E8"/>
<path d="M72.9355 31.5735C72.9355 32.4913 72.0762 33.2353 71.0161 33.2353C69.9561 33.2353 69.0968 32.4913 69.0968 31.5735C69.0968 30.6558 69.9561 29.9118 71.0161 29.9118C72.0762 29.9118 72.9355 30.6558 72.9355 31.5735Z" fill="#6D64E8"/>
<path d="M84.4516 31.5735C84.4516 32.4913 83.5923 33.2353 82.5323 33.2353C81.4722 33.2353 80.6129 32.4913 80.6129 31.5735C80.6129 30.6558 81.4722 29.9118 82.5323 29.9118C83.5923 29.9118 84.4516 30.6558 84.4516 31.5735Z" fill="#6D64E8"/>
<path d="M95.9677 31.5735C95.9677 32.4913 95.1084 33.2353 94.0484 33.2353C92.9884 33.2353 92.129 32.4913 92.129 31.5735C92.129 30.6558 92.9884 29.9118 94.0484 29.9118C95.1084 29.9118 95.9677 30.6558 95.9677 31.5735Z" fill="#6D64E8"/>
<path d="M107.484 31.5735C107.484 32.4913 106.625 33.2353 105.565 33.2353C104.504 33.2353 103.645 32.4913 103.645 31.5735C103.645 30.6558 104.504 29.9118 105.565 29.9118C106.625 29.9118 107.484 30.6558 107.484 31.5735Z" fill="#6D64E8"/>
<path d="M119 31.5735C119 32.4913 118.141 33.2353 117.081 33.2353C116.021 33.2353 115.161 32.4913 115.161 31.5735C115.161 30.6558 116.021 29.9118 117.081 29.9118C118.141 29.9118 119 30.6558 119 31.5735Z" fill="#6D64E8"/>
<path d="M3.83871 41.5441C3.83871 42.4619 2.97939 43.2059 1.91935 43.2059C0.859324 43.2059 0 42.4619 0 41.5441C0 40.6264 0.859324 39.8824 1.91935 39.8824C2.97939 39.8824 3.83871 40.6264 3.83871 41.5441Z" fill="#6D64E8"/>
<path d="M15.3548 41.5441C15.3548 42.4619 14.4955 43.2059 13.4355 43.2059C12.3755 43.2059 11.5161 42.4619 11.5161 41.5441C11.5161 40.6264 12.3755 39.8824 13.4355 39.8824C14.4955 39.8824 15.3548 40.6264 15.3548 41.5441Z" fill="#6D64E8"/>
<path d="M26.871 41.5441C26.871 42.4619 26.0116 43.2059 24.9516 43.2059C23.8916 43.2059 23.0323 42.4619 23.0323 41.5441C23.0323 40.6264 23.8916 39.8824 24.9516 39.8824C26.0116 39.8824 26.871 40.6264 26.871 41.5441Z" fill="#6D64E8"/>
<path d="M38.3871 41.5441C38.3871 42.4619 37.5278 43.2059 36.4677 43.2059C35.4077 43.2059 34.5484 42.4619 34.5484 41.5441C34.5484 40.6264 35.4077 39.8824 36.4677 39.8824C37.5278 39.8824 38.3871 40.6264 38.3871 41.5441Z" fill="#6D64E8"/>
<path d="M49.9032 41.5441C49.9032 42.4619 49.0439 43.2059 47.9839 43.2059C46.9238 43.2059 46.0645 42.4619 46.0645 41.5441C46.0645 40.6264 46.9238 39.8824 47.9839 39.8824C49.0439 39.8824 49.9032 40.6264 49.9032 41.5441Z" fill="#6D64E8"/>
<path d="M61.4194 41.5441C61.4194 42.4619 60.56 43.2059 59.5 43.2059C58.44 43.2059 57.5806 42.4619 57.5806 41.5441C57.5806 40.6264 58.44 39.8824 59.5 39.8824C60.56 39.8824 61.4194 40.6264 61.4194 41.5441Z" fill="#6D64E8"/>
<path d="M72.9355 41.5441C72.9355 42.4619 72.0762 43.2059 71.0161 43.2059C69.9561 43.2059 69.0968 42.4619 69.0968 41.5441C69.0968 40.6264 69.9561 39.8824 71.0161 39.8824C72.0762 39.8824 72.9355 40.6264 72.9355 41.5441Z" fill="#6D64E8"/>
<path d="M84.4516 41.5441C84.4516 42.4619 83.5923 43.2059 82.5323 43.2059C81.4722 43.2059 80.6129 42.4619 80.6129 41.5441C80.6129 40.6264 81.4722 39.8824 82.5323 39.8824C83.5923 39.8824 84.4516 40.6264 84.4516 41.5441Z" fill="#6D64E8"/>
<path d="M95.9677 41.5441C95.9677 42.4619 95.1084 43.2059 94.0484 43.2059C92.9884 43.2059 92.129 42.4619 92.129 41.5441C92.129 40.6264 92.9884 39.8824 94.0484 39.8824C95.1084 39.8824 95.9677 40.6264 95.9677 41.5441Z" fill="#6D64E8"/>
<path d="M107.484 41.5441C107.484 42.4619 106.625 43.2059 105.565 43.2059C104.504 43.2059 103.645 42.4619 103.645 41.5441C103.645 40.6264 104.504 39.8824 105.565 39.8824C106.625 39.8824 107.484 40.6264 107.484 41.5441Z" fill="#6D64E8"/>
<path d="M119 41.5441C119 42.4619 118.141 43.2059 117.081 43.2059C116.021 43.2059 115.161 42.4619 115.161 41.5441C115.161 40.6264 116.021 39.8824 117.081 39.8824C118.141 39.8824 119 40.6264 119 41.5441Z" fill="#6D64E8"/>
<path d="M3.83871 51.5147C3.83871 52.4325 2.97939 53.1765 1.91935 53.1765C0.859324 53.1765 0 52.4325 0 51.5147C0 50.5969 0.859324 49.8529 1.91935 49.8529C2.97939 49.8529 3.83871 50.5969 3.83871 51.5147Z" fill="#6D64E8"/>
<path d="M15.3548 51.5147C15.3548 52.4325 14.4955 53.1765 13.4355 53.1765C12.3755 53.1765 11.5161 52.4325 11.5161 51.5147C11.5161 50.5969 12.3755 49.8529 13.4355 49.8529C14.4955 49.8529 15.3548 50.5969 15.3548 51.5147Z" fill="#6D64E8"/>
<path d="M26.871 51.5147C26.871 52.4325 26.0116 53.1765 24.9516 53.1765C23.8916 53.1765 23.0323 52.4325 23.0323 51.5147C23.0323 50.5969 23.8916 49.8529 24.9516 49.8529C26.0116 49.8529 26.871 50.5969 26.871 51.5147Z" fill="#6D64E8"/>
<path d="M38.3871 51.5147C38.3871 52.4325 37.5278 53.1765 36.4677 53.1765C35.4077 53.1765 34.5484 52.4325 34.5484 51.5147C34.5484 50.5969 35.4077 49.8529 36.4677 49.8529C37.5278 49.8529 38.3871 50.5969 38.3871 51.5147Z" fill="#6D64E8"/>
<path d="M49.9032 51.5147C49.9032 52.4325 49.0439 53.1765 47.9839 53.1765C46.9238 53.1765 46.0645 52.4325 46.0645 51.5147C46.0645 50.5969 46.9238 49.8529 47.9839 49.8529C49.0439 49.8529 49.9032 50.5969 49.9032 51.5147Z" fill="#6D64E8"/>
<path d="M61.4194 51.5147C61.4194 52.4325 60.56 53.1765 59.5 53.1765C58.44 53.1765 57.5806 52.4325 57.5806 51.5147C57.5806 50.5969 58.44 49.8529 59.5 49.8529C60.56 49.8529 61.4194 50.5969 61.4194 51.5147Z" fill="#6D64E8"/>
<path d="M72.9355 51.5147C72.9355 52.4325 72.0762 53.1765 71.0161 53.1765C69.9561 53.1765 69.0968 52.4325 69.0968 51.5147C69.0968 50.5969 69.9561 49.8529 71.0161 49.8529C72.0762 49.8529 72.9355 50.5969 72.9355 51.5147Z" fill="#6D64E8"/>
<path d="M84.4516 51.5147C84.4516 52.4325 83.5923 53.1765 82.5323 53.1765C81.4722 53.1765 80.6129 52.4325 80.6129 51.5147C80.6129 50.5969 81.4722 49.8529 82.5323 49.8529C83.5923 49.8529 84.4516 50.5969 84.4516 51.5147Z" fill="#6D64E8"/>
<path d="M95.9677 51.5147C95.9677 52.4325 95.1084 53.1765 94.0484 53.1765C92.9884 53.1765 92.129 52.4325 92.129 51.5147C92.129 50.5969 92.9884 49.8529 94.0484 49.8529C95.1084 49.8529 95.9677 50.5969 95.9677 51.5147Z" fill="#6D64E8"/>
<path d="M107.484 51.5147C107.484 52.4325 106.625 53.1765 105.565 53.1765C104.504 53.1765 103.645 52.4325 103.645 51.5147C103.645 50.5969 104.504 49.8529 105.565 49.8529C106.625 49.8529 107.484 50.5969 107.484 51.5147Z" fill="#6D64E8"/>
<path d="M119 51.5147C119 52.4325 118.141 53.1765 117.081 53.1765C116.021 53.1765 115.161 52.4325 115.161 51.5147C115.161 50.5969 116.021 49.8529 117.081 49.8529C118.141 49.8529 119 50.5969 119 51.5147Z" fill="#6D64E8"/>
<path d="M3.83871 61.4853C3.83871 62.4031 2.97939 63.1471 1.91935 63.1471C0.859324 63.1471 0 62.4031 0 61.4853C0 60.5675 0.859324 59.8235 1.91935 59.8235C2.97939 59.8235 3.83871 60.5675 3.83871 61.4853Z" fill="#6D64E8"/>
<path d="M15.3548 61.4853C15.3548 62.4031 14.4955 63.1471 13.4355 63.1471C12.3755 63.1471 11.5161 62.4031 11.5161 61.4853C11.5161 60.5675 12.3755 59.8235 13.4355 59.8235C14.4955 59.8235 15.3548 60.5675 15.3548 61.4853Z" fill="#6D64E8"/>
<path d="M26.871 61.4853C26.871 62.4031 26.0116 63.1471 24.9516 63.1471C23.8916 63.1471 23.0323 62.4031 23.0323 61.4853C23.0323 60.5675 23.8916 59.8235 24.9516 59.8235C26.0116 59.8235 26.871 60.5675 26.871 61.4853Z" fill="#6D64E8"/>
<path d="M38.3871 61.4853C38.3871 62.4031 37.5278 63.1471 36.4677 63.1471C35.4077 63.1471 34.5484 62.4031 34.5484 61.4853C34.5484 60.5675 35.4077 59.8235 36.4677 59.8235C37.5278 59.8235 38.3871 60.5675 38.3871 61.4853Z" fill="#6D64E8"/>
<path d="M49.9032 61.4853C49.9032 62.4031 49.0439 63.1471 47.9839 63.1471C46.9238 63.1471 46.0645 62.4031 46.0645 61.4853C46.0645 60.5675 46.9238 59.8235 47.9839 59.8235C49.0439 59.8235 49.9032 60.5675 49.9032 61.4853Z" fill="#6D64E8"/>
<path d="M61.4194 61.4853C61.4194 62.4031 60.56 63.1471 59.5 63.1471C58.44 63.1471 57.5806 62.4031 57.5806 61.4853C57.5806 60.5675 58.44 59.8235 59.5 59.8235C60.56 59.8235 61.4194 60.5675 61.4194 61.4853Z" fill="#6D64E8"/>
<path d="M72.9355 61.4853C72.9355 62.4031 72.0762 63.1471 71.0161 63.1471C69.9561 63.1471 69.0968 62.4031 69.0968 61.4853C69.0968 60.5675 69.9561 59.8235 71.0161 59.8235C72.0762 59.8235 72.9355 60.5675 72.9355 61.4853Z" fill="#6D64E8"/>
<path d="M84.4516 61.4853C84.4516 62.4031 83.5923 63.1471 82.5323 63.1471C81.4722 63.1471 80.6129 62.4031 80.6129 61.4853C80.6129 60.5675 81.4722 59.8235 82.5323 59.8235C83.5923 59.8235 84.4516 60.5675 84.4516 61.4853Z" fill="#6D64E8"/>
<path d="M95.9677 61.4853C95.9677 62.4031 95.1084 63.1471 94.0484 63.1471C92.9884 63.1471 92.129 62.4031 92.129 61.4853C92.129 60.5675 92.9884 59.8235 94.0484 59.8235C95.1084 59.8235 95.9677 60.5675 95.9677 61.4853Z" fill="#6D64E8"/>
<path d="M107.484 61.4853C107.484 62.4031 106.625 63.1471 105.565 63.1471C104.504 63.1471 103.645 62.4031 103.645 61.4853C103.645 60.5675 104.504 59.8235 105.565 59.8235C106.625 59.8235 107.484 60.5675 107.484 61.4853Z" fill="#6D64E8"/>
<path d="M119 61.4853C119 62.4031 118.141 63.1471 117.081 63.1471C116.021 63.1471 115.161 62.4031 115.161 61.4853C115.161 60.5675 116.021 59.8235 117.081 59.8235C118.141 59.8235 119 60.5675 119 61.4853Z" fill="#6D64E8"/>
<path d="M3.83871 71.4559C3.83871 72.3736 2.97939 73.1176 1.91935 73.1176C0.859324 73.1176 0 72.3736 0 71.4559C0 70.5381 0.859324 69.7941 1.91935 69.7941C2.97939 69.7941 3.83871 70.5381 3.83871 71.4559Z" fill="#6D64E8"/>
<path d="M15.3548 71.4559C15.3548 72.3736 14.4955 73.1176 13.4355 73.1176C12.3755 73.1176 11.5161 72.3736 11.5161 71.4559C11.5161 70.5381 12.3755 69.7941 13.4355 69.7941C14.4955 69.7941 15.3548 70.5381 15.3548 71.4559Z" fill="#6D64E8"/>
<path d="M26.871 71.4559C26.871 72.3736 26.0116 73.1176 24.9516 73.1176C23.8916 73.1176 23.0323 72.3736 23.0323 71.4559C23.0323 70.5381 23.8916 69.7941 24.9516 69.7941C26.0116 69.7941 26.871 70.5381 26.871 71.4559Z" fill="#6D64E8"/>
<path d="M38.3871 71.4559C38.3871 72.3736 37.5278 73.1176 36.4677 73.1176C35.4077 73.1176 34.5484 72.3736 34.5484 71.4559C34.5484 70.5381 35.4077 69.7941 36.4677 69.7941C37.5278 69.7941 38.3871 70.5381 38.3871 71.4559Z" fill="#6D64E8"/>
<path d="M49.9032 71.4559C49.9032 72.3736 49.0439 73.1176 47.9839 73.1176C46.9238 73.1176 46.0645 72.3736 46.0645 71.4559C46.0645 70.5381 46.9238 69.7941 47.9839 69.7941C49.0439 69.7941 49.9032 70.5381 49.9032 71.4559Z" fill="#6D64E8"/>
<path d="M61.4194 71.4559C61.4194 72.3736 60.56 73.1176 59.5 73.1176C58.44 73.1176 57.5806 72.3736 57.5806 71.4559C57.5806 70.5381 58.44 69.7941 59.5 69.7941C60.56 69.7941 61.4194 70.5381 61.4194 71.4559Z" fill="#6D64E8"/>
<path d="M72.9355 71.4559C72.9355 72.3736 72.0762 73.1176 71.0161 73.1176C69.9561 73.1176 69.0968 72.3736 69.0968 71.4559C69.0968 70.5381 69.9561 69.7941 71.0161 69.7941C72.0762 69.7941 72.9355 70.5381 72.9355 71.4559Z" fill="#6D64E8"/>
<path d="M84.4516 71.4559C84.4516 72.3736 83.5923 73.1176 82.5323 73.1176C81.4722 73.1176 80.6129 72.3736 80.6129 71.4559C80.6129 70.5381 81.4722 69.7941 82.5323 69.7941C83.5923 69.7941 84.4516 70.5381 84.4516 71.4559Z" fill="#6D64E8"/>
<path d="M95.9677 71.4559C95.9677 72.3736 95.1084 73.1176 94.0484 73.1176C92.9884 73.1176 92.129 72.3736 92.129 71.4559C92.129 70.5381 92.9884 69.7941 94.0484 69.7941C95.1084 69.7941 95.9677 70.5381 95.9677 71.4559Z" fill="#6D64E8"/>
<path d="M107.484 71.4559C107.484 72.3736 106.625 73.1176 105.565 73.1176C104.504 73.1176 103.645 72.3736 103.645 71.4559C103.645 70.5381 104.504 69.7941 105.565 69.7941C106.625 69.7941 107.484 70.5381 107.484 71.4559Z" fill="#6D64E8"/>
<path d="M119 71.4559C119 72.3736 118.141 73.1176 117.081 73.1176C116.021 73.1176 115.161 72.3736 115.161 71.4559C115.161 70.5381 116.021 69.7941 117.081 69.7941C118.141 69.7941 119 70.5381 119 71.4559Z" fill="#6D64E8"/>
<path d="M3.83871 81.4265C3.83871 82.3442 2.97939 83.0882 1.91935 83.0882C0.859324 83.0882 0 82.3442 0 81.4265C0 80.5087 0.859324 79.7647 1.91935 79.7647C2.97939 79.7647 3.83871 80.5087 3.83871 81.4265Z" fill="#6D64E8"/>
<path d="M15.3548 81.4265C15.3548 82.3442 14.4955 83.0882 13.4355 83.0882C12.3755 83.0882 11.5161 82.3442 11.5161 81.4265C11.5161 80.5087 12.3755 79.7647 13.4355 79.7647C14.4955 79.7647 15.3548 80.5087 15.3548 81.4265Z" fill="#6D64E8"/>
<path d="M26.871 81.4265C26.871 82.3442 26.0116 83.0882 24.9516 83.0882C23.8916 83.0882 23.0323 82.3442 23.0323 81.4265C23.0323 80.5087 23.8916 79.7647 24.9516 79.7647C26.0116 79.7647 26.871 80.5087 26.871 81.4265Z" fill="#6D64E8"/>
<path d="M38.3871 81.4265C38.3871 82.3442 37.5278 83.0882 36.4677 83.0882C35.4077 83.0882 34.5484 82.3442 34.5484 81.4265C34.5484 80.5087 35.4077 79.7647 36.4677 79.7647C37.5278 79.7647 38.3871 80.5087 38.3871 81.4265Z" fill="#6D64E8"/>
<path d="M49.9032 81.4265C49.9032 82.3442 49.0439 83.0882 47.9839 83.0882C46.9238 83.0882 46.0645 82.3442 46.0645 81.4265C46.0645 80.5087 46.9238 79.7647 47.9839 79.7647C49.0439 79.7647 49.9032 80.5087 49.9032 81.4265Z" fill="#6D64E8"/>
<path d="M61.4194 81.4265C61.4194 82.3442 60.56 83.0882 59.5 83.0882C58.44 83.0882 57.5806 82.3442 57.5806 81.4265C57.5806 80.5087 58.44 79.7647 59.5 79.7647C60.56 79.7647 61.4194 80.5087 61.4194 81.4265Z" fill="#6D64E8"/>
<path d="M72.9355 81.4265C72.9355 82.3442 72.0762 83.0882 71.0161 83.0882C69.9561 83.0882 69.0968 82.3442 69.0968 81.4265C69.0968 80.5087 69.9561 79.7647 71.0161 79.7647C72.0762 79.7647 72.9355 80.5087 72.9355 81.4265Z" fill="#6D64E8"/>
<path d="M84.4516 81.4265C84.4516 82.3442 83.5923 83.0882 82.5323 83.0882C81.4722 83.0882 80.6129 82.3442 80.6129 81.4265C80.6129 80.5087 81.4722 79.7647 82.5323 79.7647C83.5923 79.7647 84.4516 80.5087 84.4516 81.4265Z" fill="#6D64E8"/>
<path d="M95.9677 81.4265C95.9677 82.3442 95.1084 83.0882 94.0484 83.0882C92.9884 83.0882 92.129 82.3442 92.129 81.4265C92.129 80.5087 92.9884 79.7647 94.0484 79.7647C95.1084 79.7647 95.9677 80.5087 95.9677 81.4265Z" fill="#6D64E8"/>
<path d="M107.484 81.4265C107.484 82.3442 106.625 83.0882 105.565 83.0882C104.504 83.0882 103.645 82.3442 103.645 81.4265C103.645 80.5087 104.504 79.7647 105.565 79.7647C106.625 79.7647 107.484 80.5087 107.484 81.4265Z" fill="#6D64E8"/>
<path d="M119 81.4265C119 82.3442 118.141 83.0882 117.081 83.0882C116.021 83.0882 115.161 82.3442 115.161 81.4265C115.161 80.5087 116.021 79.7647 117.081 79.7647C118.141 79.7647 119 80.5087 119 81.4265Z" fill="#6D64E8"/>
<path d="M3.83871 91.3971C3.83871 92.3148 2.97939 93.0588 1.91935 93.0588C0.859324 93.0588 0 92.3148 0 91.3971C0 90.4793 0.859324 89.7353 1.91935 89.7353C2.97939 89.7353 3.83871 90.4793 3.83871 91.3971Z" fill="#6D64E8"/>
<path d="M15.3548 91.3971C15.3548 92.3148 14.4955 93.0588 13.4355 93.0588C12.3755 93.0588 11.5161 92.3148 11.5161 91.3971C11.5161 90.4793 12.3755 89.7353 13.4355 89.7353C14.4955 89.7353 15.3548 90.4793 15.3548 91.3971Z" fill="#6D64E8"/>
<path d="M26.871 91.3971C26.871 92.3148 26.0116 93.0588 24.9516 93.0588C23.8916 93.0588 23.0323 92.3148 23.0323 91.3971C23.0323 90.4793 23.8916 89.7353 24.9516 89.7353C26.0116 89.7353 26.871 90.4793 26.871 91.3971Z" fill="#6D64E8"/>
<path d="M38.3871 91.3971C38.3871 92.3148 37.5278 93.0588 36.4677 93.0588C35.4077 93.0588 34.5484 92.3148 34.5484 91.3971C34.5484 90.4793 35.4077 89.7353 36.4677 89.7353C37.5278 89.7353 38.3871 90.4793 38.3871 91.3971Z" fill="#6D64E8"/>
<path d="M49.9032 91.3971C49.9032 92.3148 49.0439 93.0588 47.9839 93.0588C46.9238 93.0588 46.0645 92.3148 46.0645 91.3971C46.0645 90.4793 46.9238 89.7353 47.9839 89.7353C49.0439 89.7353 49.9032 90.4793 49.9032 91.3971Z" fill="#6D64E8"/>
<path d="M61.4194 91.3971C61.4194 92.3148 60.56 93.0588 59.5 93.0588C58.44 93.0588 57.5806 92.3148 57.5806 91.3971C57.5806 90.4793 58.44 89.7353 59.5 89.7353C60.56 89.7353 61.4194 90.4793 61.4194 91.3971Z" fill="#6D64E8"/>
<path d="M72.9355 91.3971C72.9355 92.3148 72.0762 93.0588 71.0161 93.0588C69.9561 93.0588 69.0968 92.3148 69.0968 91.3971C69.0968 90.4793 69.9561 89.7353 71.0161 89.7353C72.0762 89.7353 72.9355 90.4793 72.9355 91.3971Z" fill="#6D64E8"/>
<path d="M84.4516 91.3971C84.4516 92.3148 83.5923 93.0588 82.5323 93.0588C81.4722 93.0588 80.6129 92.3148 80.6129 91.3971C80.6129 90.4793 81.4722 89.7353 82.5323 89.7353C83.5923 89.7353 84.4516 90.4793 84.4516 91.3971Z" fill="#6D64E8"/>
<path d="M95.9677 91.3971C95.9677 92.3148 95.1084 93.0588 94.0484 93.0588C92.9884 93.0588 92.129 92.3148 92.129 91.3971C92.129 90.4793 92.9884 89.7353 94.0484 89.7353C95.1084 89.7353 95.9677 90.4793 95.9677 91.3971Z" fill="#6D64E8"/>
<path d="M107.484 91.3971C107.484 92.3148 106.625 93.0588 105.565 93.0588C104.504 93.0588 103.645 92.3148 103.645 91.3971C103.645 90.4793 104.504 89.7353 105.565 89.7353C106.625 89.7353 107.484 90.4793 107.484 91.3971Z" fill="#6D64E8"/>
<path d="M119 91.3971C119 92.3148 118.141 93.0588 117.081 93.0588C116.021 93.0588 115.161 92.3148 115.161 91.3971C115.161 90.4793 116.021 89.7353 117.081 89.7353C118.141 89.7353 119 90.4793 119 91.3971Z" fill="#6D64E8"/>
<path d="M3.83871 101.368C3.83871 102.285 2.97939 103.029 1.91935 103.029C0.859324 103.029 0 102.285 0 101.368C0 100.45 0.859324 99.7059 1.91935 99.7059C2.97939 99.7059 3.83871 100.45 3.83871 101.368Z" fill="#6D64E8"/>
<path d="M15.3548 101.368C15.3548 102.285 14.4955 103.029 13.4355 103.029C12.3755 103.029 11.5161 102.285 11.5161 101.368C11.5161 100.45 12.3755 99.7059 13.4355 99.7059C14.4955 99.7059 15.3548 100.45 15.3548 101.368Z" fill="#6D64E8"/>
<path d="M26.871 101.368C26.871 102.285 26.0116 103.029 24.9516 103.029C23.8916 103.029 23.0323 102.285 23.0323 101.368C23.0323 100.45 23.8916 99.7059 24.9516 99.7059C26.0116 99.7059 26.871 100.45 26.871 101.368Z" fill="#6D64E8"/>
<path d="M38.3871 101.368C38.3871 102.285 37.5278 103.029 36.4677 103.029C35.4077 103.029 34.5484 102.285 34.5484 101.368C34.5484 100.45 35.4077 99.7059 36.4677 99.7059C37.5278 99.7059 38.3871 100.45 38.3871 101.368Z" fill="#6D64E8"/>
<path d="M49.9032 101.368C49.9032 102.285 49.0439 103.029 47.9839 103.029C46.9238 103.029 46.0645 102.285 46.0645 101.368C46.0645 100.45 46.9238 99.7059 47.9839 99.7059C49.0439 99.7059 49.9032 100.45 49.9032 101.368Z" fill="#6D64E8"/>
<path d="M61.4194 101.368C61.4194 102.285 60.56 103.029 59.5 103.029C58.44 103.029 57.5806 102.285 57.5806 101.368C57.5806 100.45 58.44 99.7059 59.5 99.7059C60.56 99.7059 61.4194 100.45 61.4194 101.368Z" fill="#6D64E8"/>
<path d="M72.9355 101.368C72.9355 102.285 72.0762 103.029 71.0161 103.029C69.9561 103.029 69.0968 102.285 69.0968 101.368C69.0968 100.45 69.9561 99.7059 71.0161 99.7059C72.0762 99.7059 72.9355 100.45 72.9355 101.368Z" fill="#6D64E8"/>
<path d="M84.4516 101.368C84.4516 102.285 83.5923 103.029 82.5323 103.029C81.4722 103.029 80.6129 102.285 80.6129 101.368C80.6129 100.45 81.4722 99.7059 82.5323 99.7059C83.5923 99.7059 84.4516 100.45 84.4516 101.368Z" fill="#6D64E8"/>
<path d="M95.9677 101.368C95.9677 102.285 95.1084 103.029 94.0484 103.029C92.9884 103.029 92.129 102.285 92.129 101.368C92.129 100.45 92.9884 99.7059 94.0484 99.7059C95.1084 99.7059 95.9677 100.45 95.9677 101.368Z" fill="#6D64E8"/>
<path d="M107.484 101.368C107.484 102.285 106.625 103.029 105.565 103.029C104.504 103.029 103.645 102.285 103.645 101.368C103.645 100.45 104.504 99.7059 105.565 99.7059C106.625 99.7059 107.484 100.45 107.484 101.368Z" fill="#6D64E8"/>
<path d="M119 101.368C119 102.285 118.141 103.029 117.081 103.029C116.021 103.029 115.161 102.285 115.161 101.368C115.161 100.45 116.021 99.7059 117.081 99.7059C118.141 99.7059 119 100.45 119 101.368Z" fill="#6D64E8"/>
<path d="M3.83871 111.338C3.83871 112.256 2.97939 113 1.91935 113C0.859324 113 0 112.256 0 111.338C0 110.42 0.859324 109.676 1.91935 109.676C2.97939 109.676 3.83871 110.42 3.83871 111.338Z" fill="#6D64E8"/>
<path d="M15.3548 111.338C15.3548 112.256 14.4955 113 13.4355 113C12.3755 113 11.5161 112.256 11.5161 111.338C11.5161 110.42 12.3755 109.676 13.4355 109.676C14.4955 109.676 15.3548 110.42 15.3548 111.338Z" fill="#6D64E8"/>
<path d="M26.871 111.338C26.871 112.256 26.0116 113 24.9516 113C23.8916 113 23.0323 112.256 23.0323 111.338C23.0323 110.42 23.8916 109.676 24.9516 109.676C26.0116 109.676 26.871 110.42 26.871 111.338Z" fill="#6D64E8"/>
<path d="M38.3871 111.338C38.3871 112.256 37.5278 113 36.4677 113C35.4077 113 34.5484 112.256 34.5484 111.338C34.5484 110.42 35.4077 109.676 36.4677 109.676C37.5278 109.676 38.3871 110.42 38.3871 111.338Z" fill="#6D64E8"/>
<path d="M49.9032 111.338C49.9032 112.256 49.0439 113 47.9839 113C46.9238 113 46.0645 112.256 46.0645 111.338C46.0645 110.42 46.9238 109.676 47.9839 109.676C49.0439 109.676 49.9032 110.42 49.9032 111.338Z" fill="#6D64E8"/>
<path d="M61.4194 111.338C61.4194 112.256 60.56 113 59.5 113C58.44 113 57.5806 112.256 57.5806 111.338C57.5806 110.42 58.44 109.676 59.5 109.676C60.56 109.676 61.4194 110.42 61.4194 111.338Z" fill="#6D64E8"/>
<path d="M72.9355 111.338C72.9355 112.256 72.0762 113 71.0161 113C69.9561 113 69.0968 112.256 69.0968 111.338C69.0968 110.42 69.9561 109.676 71.0161 109.676C72.0762 109.676 72.9355 110.42 72.9355 111.338Z" fill="#6D64E8"/>
<path d="M84.4516 111.338C84.4516 112.256 83.5923 113 82.5323 113C81.4722 113 80.6129 112.256 80.6129 111.338C80.6129 110.42 81.4722 109.676 82.5323 109.676C83.5923 109.676 84.4516 110.42 84.4516 111.338Z" fill="#6D64E8"/>
<path d="M95.9677 111.338C95.9677 112.256 95.1084 113 94.0484 113C92.9884 113 92.129 112.256 92.129 111.338C92.129 110.42 92.9884 109.676 94.0484 109.676C95.1084 109.676 95.9677 110.42 95.9677 111.338Z" fill="#6D64E8"/>
<path d="M107.484 111.338C107.484 112.256 106.625 113 105.565 113C104.504 113 103.645 112.256 103.645 111.338C103.645 110.42 104.504 109.676 105.565 109.676C106.625 109.676 107.484 110.42 107.484 111.338Z" fill="#6D64E8"/>
<path d="M119 111.338C119 112.256 118.141 113 117.081 113C116.021 113 115.161 112.256 115.161 111.338C115.161 110.42 116.021 109.676 117.081 109.676C118.141 109.676 119 110.42 119 111.338Z" fill="#6D64E8"/>
</svg>
