<svg width="229" height="229" viewBox="0 0 229 229" fill="none" xmlns="http://www.w3.org/2000/svg">
<g filter="url(#filter0_d_279_140)">
<rect x="18.8672" y="18.2198" width="192" height="192" rx="96" fill="white" fill-opacity="0.01" shape-rendering="crispEdges"/>
<rect x="23.8672" y="23.2198" width="182" height="182" rx="91" stroke="#5DD8D3" stroke-width="10" stroke-dasharray="3 2" shape-rendering="crispEdges"/>
<path d="M79.4859 101.92V99.7998L94.0459 80.1998H97.3659V99.4798H101.646V101.92H97.3659V108.72H94.6059V101.92H79.4859ZM94.7259 83.2798L82.7259 99.4798H94.7259V83.2798ZM105.257 94.1198C105.257 89.5332 105.964 85.9732 107.377 83.4398C108.791 80.9065 111.324 79.6398 114.977 79.6398C118.631 79.6398 121.164 80.9065 122.577 83.4398C123.991 85.9732 124.697 89.5332 124.697 94.1198C124.697 98.7865 123.991 102.4 122.577 104.96C121.164 107.52 118.631 108.8 114.977 108.8C111.297 108.8 108.751 107.52 107.337 104.96C105.951 102.4 105.257 98.7865 105.257 94.1198ZM121.937 94.1198C121.937 91.6398 121.764 89.5465 121.417 87.8398C121.071 86.1332 120.391 84.7598 119.377 83.7198C118.364 82.6798 116.897 82.1598 114.977 82.1598C113.057 82.1598 111.591 82.6798 110.577 83.7198C109.564 84.7598 108.884 86.1332 108.537 87.8398C108.191 89.5465 108.017 91.6398 108.017 94.1198C108.017 96.6798 108.191 98.8265 108.537 100.56C108.884 102.267 109.564 103.64 110.577 104.68C111.591 105.72 113.057 106.24 114.977 106.24C116.897 106.24 118.364 105.72 119.377 104.68C120.391 103.64 121.071 102.267 121.417 100.56C121.764 98.8265 121.937 96.6798 121.937 94.1198ZM129.906 94.1198C129.906 89.5332 130.612 85.9732 132.026 83.4398C133.439 80.9065 135.972 79.6398 139.626 79.6398C143.279 79.6398 145.812 80.9065 147.226 83.4398C148.639 85.9732 149.346 89.5332 149.346 94.1198C149.346 98.7865 148.639 102.4 147.226 104.96C145.812 107.52 143.279 108.8 139.626 108.8C135.946 108.8 133.399 107.52 131.986 104.96C130.599 102.4 129.906 98.7865 129.906 94.1198ZM146.586 94.1198C146.586 91.6398 146.412 89.5465 146.066 87.8398C145.719 86.1332 145.039 84.7598 144.026 83.7198C143.012 82.6798 141.546 82.1598 139.626 82.1598C137.706 82.1598 136.239 82.6798 135.226 83.7198C134.212 84.7598 133.532 86.1332 133.186 87.8398C132.839 89.5465 132.666 91.6398 132.666 94.1198C132.666 96.6798 132.839 98.8265 133.186 100.56C133.532 102.267 134.212 103.64 135.226 104.68C136.239 105.72 137.706 106.24 139.626 106.24C141.546 106.24 143.012 105.72 144.026 104.68C145.039 103.64 145.719 102.267 146.066 100.56C146.412 98.8265 146.586 96.6798 146.586 94.1198Z" fill="#5DD8D3"/>
<path d="M69.1421 136.52C69.1421 135.696 69.3261 134.96 69.6941 134.312C70.0701 133.656 70.5781 133.148 71.2181 132.788C71.8661 132.42 72.5901 132.236 73.3901 132.236C74.3261 132.236 75.1461 132.476 75.8501 132.956C76.5541 133.436 77.0461 134.1 77.3261 134.948H75.3941C75.2021 134.548 74.9301 134.248 74.5781 134.048C74.2341 133.848 73.8341 133.748 73.3781 133.748C72.8901 133.748 72.4541 133.864 72.0701 134.096C71.6941 134.32 71.3981 134.64 71.1821 135.056C70.9741 135.472 70.8701 135.96 70.8701 136.52C70.8701 137.072 70.9741 137.56 71.1821 137.984C71.3981 138.4 71.6941 138.724 72.0701 138.956C72.4541 139.18 72.8901 139.292 73.3781 139.292C73.8341 139.292 74.2341 139.192 74.5781 138.992C74.9301 138.784 75.2021 138.48 75.3941 138.08H77.3261C77.0461 138.936 76.5541 139.604 75.8501 140.084C75.1541 140.556 74.3341 140.792 73.3901 140.792C72.5901 140.792 71.8661 140.612 71.2181 140.252C70.5781 139.884 70.0701 139.376 69.6941 138.728C69.3261 138.08 69.1421 137.344 69.1421 136.52ZM82.8171 132.344V137.528C82.8171 138.096 82.9651 138.532 83.2611 138.836C83.5571 139.132 83.9731 139.28 84.5091 139.28C85.0531 139.28 85.4731 139.132 85.7691 138.836C86.0651 138.532 86.2131 138.096 86.2131 137.528V132.344H87.9051V137.516C87.9051 138.228 87.7491 138.832 87.4371 139.328C87.1331 139.816 86.7211 140.184 86.2011 140.432C85.6891 140.68 85.1171 140.804 84.4851 140.804C83.8611 140.804 83.2931 140.68 82.7811 140.432C82.2771 140.184 81.8771 139.816 81.5811 139.328C81.2851 138.832 81.1371 138.228 81.1371 137.516V132.344H82.8171ZM94.8203 140.804C94.2363 140.804 93.7083 140.704 93.2363 140.504C92.7723 140.304 92.4043 140.016 92.1323 139.64C91.8603 139.264 91.7203 138.82 91.7123 138.308H93.5123C93.5363 138.652 93.6563 138.924 93.8723 139.124C94.0963 139.324 94.4003 139.424 94.7843 139.424C95.1763 139.424 95.4843 139.332 95.7083 139.148C95.9323 138.956 96.0443 138.708 96.0443 138.404C96.0443 138.156 95.9683 137.952 95.8163 137.792C95.6643 137.632 95.4723 137.508 95.2403 137.42C95.0163 137.324 94.7043 137.22 94.3043 137.108C93.7603 136.948 93.3163 136.792 92.9723 136.64C92.6363 136.48 92.3443 136.244 92.0963 135.932C91.8563 135.612 91.7363 135.188 91.7363 134.66C91.7363 134.164 91.8603 133.732 92.1083 133.364C92.3563 132.996 92.7043 132.716 93.1523 132.524C93.6003 132.324 94.1123 132.224 94.6883 132.224C95.5523 132.224 96.2523 132.436 96.7883 132.86C97.3323 133.276 97.6323 133.86 97.6883 134.612H95.8403C95.8243 134.324 95.7003 134.088 95.4683 133.904C95.2443 133.712 94.9443 133.616 94.5683 133.616C94.2403 133.616 93.9763 133.7 93.7763 133.868C93.5843 134.036 93.4883 134.28 93.4883 134.6C93.4883 134.824 93.5603 135.012 93.7043 135.164C93.8563 135.308 94.0403 135.428 94.2563 135.524C94.4803 135.612 94.7923 135.716 95.1923 135.836C95.7363 135.996 96.1803 136.156 96.5243 136.316C96.8683 136.476 97.1643 136.716 97.4123 137.036C97.6603 137.356 97.7843 137.776 97.7843 138.296C97.7843 138.744 97.6683 139.16 97.4363 139.544C97.2043 139.928 96.8643 140.236 96.4163 140.468C95.9683 140.692 95.4363 140.804 94.8203 140.804ZM107.341 132.344V133.7H105.109V140.72H103.429V133.7H101.197V132.344H107.341ZM114.855 140.804C114.071 140.804 113.351 140.62 112.695 140.252C112.039 139.884 111.519 139.376 111.135 138.728C110.751 138.072 110.559 137.332 110.559 136.508C110.559 135.692 110.751 134.96 111.135 134.312C111.519 133.656 112.039 133.144 112.695 132.776C113.351 132.408 114.071 132.224 114.855 132.224C115.647 132.224 116.367 132.408 117.015 132.776C117.671 133.144 118.187 133.656 118.563 134.312C118.947 134.96 119.139 135.692 119.139 136.508C119.139 137.332 118.947 138.072 118.563 138.728C118.187 139.376 117.671 139.884 117.015 140.252C116.359 140.62 115.639 140.804 114.855 140.804ZM114.855 139.304C115.359 139.304 115.803 139.192 116.187 138.968C116.571 138.736 116.871 138.408 117.087 137.984C117.303 137.56 117.411 137.068 117.411 136.508C117.411 135.948 117.303 135.46 117.087 135.044C116.871 134.62 116.571 134.296 116.187 134.072C115.803 133.848 115.359 133.736 114.855 133.736C114.351 133.736 113.903 133.848 113.511 134.072C113.127 134.296 112.827 134.62 112.611 135.044C112.395 135.46 112.287 135.948 112.287 136.508C112.287 137.068 112.395 137.56 112.611 137.984C112.827 138.408 113.127 138.736 113.511 138.968C113.903 139.192 114.351 139.304 114.855 139.304ZM131.92 132.344V140.72H130.24V135.272L127.996 140.72H126.724L124.468 135.272V140.72H122.788V132.344H124.696L127.36 138.572L130.024 132.344H131.92ZM137.661 133.7V135.8H140.481V137.132H137.661V139.352H140.841V140.72H135.981V132.332H140.841V133.7H137.661ZM149.088 140.72L147.24 137.456H146.448V140.72H144.768V132.344H147.912C148.56 132.344 149.112 132.46 149.568 132.692C150.024 132.916 150.364 133.224 150.588 133.616C150.82 134 150.936 134.432 150.936 134.912C150.936 135.464 150.776 135.964 150.456 136.412C150.136 136.852 149.66 137.156 149.028 137.324L151.032 140.72H149.088ZM146.448 136.196H147.852C148.308 136.196 148.648 136.088 148.872 135.872C149.096 135.648 149.208 135.34 149.208 134.948C149.208 134.564 149.096 134.268 148.872 134.06C148.648 133.844 148.308 133.736 147.852 133.736H146.448V136.196ZM157.748 140.804C157.164 140.804 156.636 140.704 156.164 140.504C155.7 140.304 155.332 140.016 155.06 139.64C154.788 139.264 154.648 138.82 154.64 138.308H156.44C156.464 138.652 156.584 138.924 156.8 139.124C157.024 139.324 157.328 139.424 157.712 139.424C158.104 139.424 158.412 139.332 158.636 139.148C158.86 138.956 158.972 138.708 158.972 138.404C158.972 138.156 158.896 137.952 158.744 137.792C158.592 137.632 158.4 137.508 158.168 137.42C157.944 137.324 157.632 137.22 157.232 137.108C156.688 136.948 156.244 136.792 155.9 136.64C155.564 136.48 155.272 136.244 155.024 135.932C154.784 135.612 154.664 135.188 154.664 134.66C154.664 134.164 154.788 133.732 155.036 133.364C155.284 132.996 155.632 132.716 156.08 132.524C156.528 132.324 157.04 132.224 157.616 132.224C158.48 132.224 159.18 132.436 159.716 132.86C160.26 133.276 160.56 133.86 160.616 134.612H158.768C158.752 134.324 158.628 134.088 158.396 133.904C158.172 133.712 157.872 133.616 157.496 133.616C157.168 133.616 156.904 133.7 156.704 133.868C156.512 134.036 156.416 134.28 156.416 134.6C156.416 134.824 156.488 135.012 156.632 135.164C156.784 135.308 156.968 135.428 157.184 135.524C157.408 135.612 157.72 135.716 158.12 135.836C158.664 135.996 159.108 136.156 159.452 136.316C159.796 136.476 160.092 136.716 160.34 137.036C160.588 137.356 160.712 137.776 160.712 138.296C160.712 138.744 160.596 139.16 160.364 139.544C160.132 139.928 159.792 140.236 159.344 140.468C158.896 140.692 158.364 140.804 157.748 140.804Z" fill="#666E82"/>
</g>
<defs>
<filter id="filter0_d_279_140" x="0.867188" y="0.219849" width="228" height="228" filterUnits="userSpaceOnUse" color-interpolation-filters="sRGB">
<feFlood flood-opacity="0" result="BackgroundImageFix"/>
<feColorMatrix in="SourceAlpha" type="matrix" values="0 0 0 0 0 0 0 0 0 0 0 0 0 0 0 0 0 0 127 0" result="hardAlpha"/>
<feMorphology radius="18" operator="dilate" in="SourceAlpha" result="effect1_dropShadow_279_140"/>
<feOffset/>
<feComposite in2="hardAlpha" operator="out"/>
<feColorMatrix type="matrix" values="0 0 0 0 1 0 0 0 0 1 0 0 0 0 1 0 0 0 1 0"/>
<feBlend mode="normal" in2="BackgroundImageFix" result="effect1_dropShadow_279_140"/>
<feBlend mode="normal" in="SourceGraphic" in2="effect1_dropShadow_279_140" result="shape"/>
</filter>
</defs>
</svg>
