<svg width="229" height="229" viewBox="0 0 229 229" fill="none" xmlns="http://www.w3.org/2000/svg">
<g filter="url(#filter0_d_279_136)">
<rect x="18.6836" y="18.2198" width="192" height="192" rx="96" fill="white" fill-opacity="0.01" shape-rendering="crispEdges"/>
<rect x="23.6836" y="23.2198" width="182" height="182" rx="91" stroke="#EF4059" stroke-width="10" stroke-dasharray="3 2" shape-rendering="crispEdges"/>
<path d="M86.4841 82.5598V80.0398H93.2841V108.72H90.4441V82.5598H86.4841ZM98.9638 106.52C103.87 102.84 107.657 99.5465 110.324 96.6398C113.017 93.7065 114.364 90.8398 114.364 88.0398C114.364 86.1998 113.897 84.7332 112.964 83.6398C112.057 82.5198 110.564 81.9598 108.484 81.9598C106.457 81.9598 104.884 82.5998 103.764 83.8798C102.67 85.1332 102.057 86.8132 101.924 88.9198H99.2038C99.3638 85.9598 100.27 83.6665 101.924 82.0398C103.604 80.3865 105.79 79.5598 108.484 79.5598C111.07 79.5598 113.164 80.2932 114.764 81.7598C116.364 83.1998 117.164 85.2532 117.164 87.9198C117.164 91.1465 115.817 94.2798 113.124 97.3198C110.457 100.333 107.164 103.28 103.244 106.16H118.044V108.52H98.9638V106.52ZM122.414 94.1198C122.414 89.5332 123.121 85.9732 124.534 83.4398C125.948 80.9065 128.481 79.6398 132.134 79.6398C135.788 79.6398 138.321 80.9065 139.734 83.4398C141.148 85.9732 141.854 89.5332 141.854 94.1198C141.854 98.7865 141.148 102.4 139.734 104.96C138.321 107.52 135.788 108.8 132.134 108.8C128.454 108.8 125.908 107.52 124.494 104.96C123.108 102.4 122.414 98.7865 122.414 94.1198ZM139.094 94.1198C139.094 91.6398 138.921 89.5465 138.574 87.8398C138.228 86.1332 137.548 84.7598 136.534 83.7198C135.521 82.6798 134.054 82.1598 132.134 82.1598C130.214 82.1598 128.748 82.6798 127.734 83.7198C126.721 84.7598 126.041 86.1332 125.694 87.8398C125.348 89.5465 125.174 91.6398 125.174 94.1198C125.174 96.6798 125.348 98.8265 125.694 100.56C126.041 102.267 126.721 103.64 127.734 104.68C128.748 105.72 130.214 106.24 132.134 106.24C134.054 106.24 135.521 105.72 136.534 104.68C137.548 103.64 138.228 102.267 138.574 100.56C138.921 98.8265 139.094 96.6798 139.094 94.1198Z" fill="#EF4059"/>
<path d="M85.8362 136.424C86.3082 136.512 86.6962 136.748 87.0002 137.132C87.3042 137.516 87.4562 137.956 87.4562 138.452C87.4562 138.9 87.3442 139.296 87.1202 139.64C86.9042 139.976 86.5882 140.24 86.1722 140.432C85.7562 140.624 85.2642 140.72 84.6962 140.72H81.0842V132.344H84.5402C85.1082 132.344 85.5962 132.436 86.0042 132.62C86.4202 132.804 86.7322 133.06 86.9402 133.388C87.1562 133.716 87.2642 134.088 87.2642 134.504C87.2642 134.992 87.1322 135.4 86.8682 135.728C86.6122 136.056 86.2682 136.288 85.8362 136.424ZM82.7642 135.8H84.3002C84.7002 135.8 85.0082 135.712 85.2242 135.536C85.4402 135.352 85.5482 135.092 85.5482 134.756C85.5482 134.42 85.4402 134.16 85.2242 133.976C85.0082 133.792 84.7002 133.7 84.3002 133.7H82.7642V135.8ZM84.4562 139.352C84.8642 139.352 85.1802 139.256 85.4042 139.064C85.6362 138.872 85.7522 138.6 85.7522 138.248C85.7522 137.888 85.6322 137.608 85.3922 137.408C85.1522 137.2 84.8282 137.096 84.4202 137.096H82.7642V139.352H84.4562ZM96.3312 139.124H92.9952L92.4432 140.72H90.6792L93.6912 132.332H95.6472L98.6592 140.72H96.8832L96.3312 139.124ZM95.8752 137.78L94.6632 134.276L93.4512 137.78H95.8752ZM107.885 132.344V133.7H105.653V140.72H103.973V133.7H101.741V132.344H107.885ZM111.103 136.52C111.103 135.696 111.287 134.96 111.655 134.312C112.031 133.656 112.539 133.148 113.179 132.788C113.827 132.42 114.551 132.236 115.351 132.236C116.287 132.236 117.107 132.476 117.811 132.956C118.515 133.436 119.007 134.1 119.287 134.948H117.355C117.163 134.548 116.891 134.248 116.539 134.048C116.195 133.848 115.795 133.748 115.339 133.748C114.851 133.748 114.415 133.864 114.031 134.096C113.655 134.32 113.359 134.64 113.143 135.056C112.935 135.472 112.831 135.96 112.831 136.52C112.831 137.072 112.935 137.56 113.143 137.984C113.359 138.4 113.655 138.724 114.031 138.956C114.415 139.18 114.851 139.292 115.339 139.292C115.795 139.292 116.195 139.192 116.539 138.992C116.891 138.784 117.163 138.48 117.355 138.08H119.287C119.007 138.936 118.515 139.604 117.811 140.084C117.115 140.556 116.295 140.792 115.351 140.792C114.551 140.792 113.827 140.612 113.179 140.252C112.539 139.884 112.031 139.376 111.655 138.728C111.287 138.08 111.103 137.344 111.103 136.52ZM130.07 132.344V140.72H128.39V137.156H124.802V140.72H123.122V132.344H124.802V135.788H128.39V132.344H130.07ZM135.803 133.7V135.8H138.623V137.132H135.803V139.352H138.983V140.72H134.123V132.332H138.983V133.7H135.803ZM145.802 140.804C145.218 140.804 144.69 140.704 144.218 140.504C143.754 140.304 143.386 140.016 143.114 139.64C142.842 139.264 142.702 138.82 142.694 138.308H144.494C144.518 138.652 144.638 138.924 144.854 139.124C145.078 139.324 145.382 139.424 145.766 139.424C146.158 139.424 146.466 139.332 146.69 139.148C146.914 138.956 147.026 138.708 147.026 138.404C147.026 138.156 146.95 137.952 146.798 137.792C146.646 137.632 146.454 137.508 146.222 137.42C145.998 137.324 145.686 137.22 145.286 137.108C144.742 136.948 144.298 136.792 143.954 136.64C143.618 136.48 143.326 136.244 143.078 135.932C142.838 135.612 142.718 135.188 142.718 134.66C142.718 134.164 142.842 133.732 143.09 133.364C143.338 132.996 143.686 132.716 144.134 132.524C144.582 132.324 145.094 132.224 145.67 132.224C146.534 132.224 147.234 132.436 147.77 132.86C148.314 133.276 148.614 133.86 148.67 134.612H146.822C146.806 134.324 146.682 134.088 146.45 133.904C146.226 133.712 145.926 133.616 145.55 133.616C145.222 133.616 144.958 133.7 144.758 133.868C144.566 134.036 144.47 134.28 144.47 134.6C144.47 134.824 144.542 135.012 144.686 135.164C144.838 135.308 145.022 135.428 145.238 135.524C145.462 135.612 145.774 135.716 146.174 135.836C146.718 135.996 147.162 136.156 147.506 136.316C147.85 136.476 148.146 136.716 148.394 137.036C148.642 137.356 148.766 137.776 148.766 138.296C148.766 138.744 148.65 139.16 148.418 139.544C148.186 139.928 147.846 140.236 147.398 140.468C146.95 140.692 146.418 140.804 145.802 140.804Z" fill="#666E82"/>
</g>
<defs>
<filter id="filter0_d_279_136" x="0.683594" y="0.219849" width="228" height="228" filterUnits="userSpaceOnUse" color-interpolation-filters="sRGB">
<feFlood flood-opacity="0" result="BackgroundImageFix"/>
<feColorMatrix in="SourceAlpha" type="matrix" values="0 0 0 0 0 0 0 0 0 0 0 0 0 0 0 0 0 0 127 0" result="hardAlpha"/>
<feMorphology radius="18" operator="dilate" in="SourceAlpha" result="effect1_dropShadow_279_136"/>
<feOffset/>
<feComposite in2="hardAlpha" operator="out"/>
<feColorMatrix type="matrix" values="0 0 0 0 1 0 0 0 0 1 0 0 0 0 1 0 0 0 1 0"/>
<feBlend mode="normal" in2="BackgroundImageFix" result="effect1_dropShadow_279_136"/>
<feBlend mode="normal" in="SourceGraphic" in2="effect1_dropShadow_279_136" result="shape"/>
</filter>
</defs>
</svg>
