<svg width="229" height="229" viewBox="0 0 229 229" fill="none" xmlns="http://www.w3.org/2000/svg">
<g filter="url(#filter0_d_279_144)">
<rect x="18.0508" y="18.2198" width="192" height="192" rx="96" fill="white" fill-opacity="0.01" shape-rendering="crispEdges"/>
<rect x="23.0508" y="23.2198" width="182" height="182" rx="91" stroke="#E01B84" stroke-width="10" stroke-dasharray="3 2" shape-rendering="crispEdges"/>
<path d="M83.1217 101.08C83.415 102.813 84.0817 104.147 85.1217 105.08C86.1617 106.013 87.5884 106.48 89.4017 106.48C91.9084 106.48 93.7617 105.507 94.9617 103.56C96.1884 101.587 96.7484 98.3332 96.6417 93.7998C96.135 95.2665 95.1617 96.4265 93.7217 97.2798C92.3084 98.1065 90.6817 98.5198 88.8417 98.5198C86.0417 98.5198 83.7884 97.6798 82.0817 95.9998C80.4017 94.3198 79.5617 91.9865 79.5617 88.9998C79.5617 87.2132 79.9084 85.5998 80.6017 84.1598C81.295 82.7198 82.3484 81.5865 83.7617 80.7598C85.175 79.9332 86.9084 79.5198 88.9617 79.5198C92.7484 79.5198 95.3884 80.7598 96.8817 83.2398C98.375 85.6932 99.1217 89.2265 99.1217 93.8398C99.1217 98.8265 98.375 102.573 96.8817 105.08C95.415 107.587 92.8817 108.84 89.2817 108.84C86.6417 108.84 84.5884 108.133 83.1217 106.72C81.655 105.28 80.7884 103.4 80.5217 101.08H83.1217ZM89.2817 96.1198C90.535 96.1198 91.6817 95.8665 92.7217 95.3598C93.7884 94.8265 94.6417 94.0532 95.2817 93.0398C95.9217 92.0265 96.2417 90.8132 96.2417 89.3998C96.2417 87.2132 95.615 85.4132 94.3617 83.9998C93.135 82.5865 91.3617 81.8798 89.0417 81.8798C86.9884 81.8798 85.335 82.5198 84.0817 83.7998C82.855 85.0798 82.2417 86.7865 82.2417 88.9198C82.2417 91.1598 82.855 92.9198 84.0817 94.1998C85.3084 95.4798 87.0417 96.1198 89.2817 96.1198ZM120.882 87.0398C120.295 83.5732 118.282 81.8398 114.842 81.8398C112.228 81.8398 110.268 82.8532 108.962 84.8798C107.655 86.9065 107.055 90.2265 107.162 94.8398C107.695 93.2398 108.708 91.9865 110.202 91.0798C111.722 90.1465 113.455 89.6798 115.402 89.6798C118.202 89.6798 120.415 90.5465 122.042 92.2798C123.695 93.9865 124.522 96.3465 124.522 99.3598C124.522 101.12 124.175 102.72 123.482 104.16C122.815 105.573 121.775 106.707 120.362 107.56C118.975 108.413 117.242 108.84 115.162 108.84C111.188 108.84 108.442 107.573 106.922 105.04C105.428 102.507 104.682 98.9198 104.682 94.2798C104.682 84.4132 108.068 79.4798 114.842 79.4798C117.402 79.4798 119.415 80.1865 120.882 81.5998C122.348 82.9865 123.215 84.7998 123.482 87.0398H120.882ZM114.882 92.0798C113.628 92.0798 112.442 92.3332 111.322 92.8398C110.202 93.3465 109.282 94.1198 108.562 95.1598C107.868 96.1732 107.522 97.4265 107.522 98.9198C107.522 101.08 108.162 102.88 109.442 104.32C110.722 105.76 112.588 106.48 115.042 106.48C117.095 106.48 118.735 105.853 119.962 104.6C121.188 103.347 121.802 101.64 121.802 99.4798C121.802 97.1598 121.202 95.3465 120.002 94.0398C118.802 92.7332 117.095 92.0798 114.882 92.0798ZM129.558 94.1198C129.558 89.5332 130.265 85.9732 131.678 83.4398C133.091 80.9065 135.625 79.6398 139.278 79.6398C142.931 79.6398 145.465 80.9065 146.878 83.4398C148.291 85.9732 148.998 89.5332 148.998 94.1198C148.998 98.7865 148.291 102.4 146.878 104.96C145.465 107.52 142.931 108.8 139.278 108.8C135.598 108.8 133.051 107.52 131.638 104.96C130.251 102.4 129.558 98.7865 129.558 94.1198ZM146.238 94.1198C146.238 91.6398 146.065 89.5465 145.718 87.8398C145.371 86.1332 144.691 84.7598 143.678 83.7198C142.665 82.6798 141.198 82.1598 139.278 82.1598C137.358 82.1598 135.891 82.6798 134.878 83.7198C133.865 84.7598 133.185 86.1332 132.838 87.8398C132.491 89.5465 132.318 91.6398 132.318 94.1198C132.318 96.6798 132.491 98.8265 132.838 100.56C133.185 102.267 133.865 103.64 134.878 104.68C135.891 105.72 137.358 106.24 139.278 106.24C141.198 106.24 142.665 105.72 143.678 104.68C144.691 103.64 145.371 102.267 145.718 100.56C146.065 98.8265 146.238 96.6798 146.238 94.1198Z" fill="#9364D4"/>
<path d="M83.1548 140.804C82.5708 140.804 82.0428 140.704 81.5708 140.504C81.1068 140.304 80.7388 140.016 80.4668 139.64C80.1948 139.264 80.0548 138.82 80.0468 138.308H81.8468C81.8708 138.652 81.9908 138.924 82.2068 139.124C82.4308 139.324 82.7348 139.424 83.1188 139.424C83.5108 139.424 83.8188 139.332 84.0428 139.148C84.2668 138.956 84.3788 138.708 84.3788 138.404C84.3788 138.156 84.3028 137.952 84.1508 137.792C83.9988 137.632 83.8068 137.508 83.5748 137.42C83.3508 137.324 83.0388 137.22 82.6388 137.108C82.0948 136.948 81.6508 136.792 81.3068 136.64C80.9708 136.48 80.6788 136.244 80.4308 135.932C80.1908 135.612 80.0708 135.188 80.0708 134.66C80.0708 134.164 80.1948 133.732 80.4428 133.364C80.6908 132.996 81.0388 132.716 81.4868 132.524C81.9348 132.324 82.4468 132.224 83.0228 132.224C83.8868 132.224 84.5868 132.436 85.1228 132.86C85.6668 133.276 85.9668 133.86 86.0228 134.612H84.1748C84.1588 134.324 84.0348 134.088 83.8028 133.904C83.5788 133.712 83.2788 133.616 82.9028 133.616C82.5748 133.616 82.3108 133.7 82.1108 133.868C81.9188 134.036 81.8228 134.28 81.8228 134.6C81.8228 134.824 81.8948 135.012 82.0388 135.164C82.1908 135.308 82.3748 135.428 82.5908 135.524C82.8148 135.612 83.1268 135.716 83.5268 135.836C84.0708 135.996 84.5148 136.156 84.8588 136.316C85.2028 136.476 85.4988 136.716 85.7468 137.036C85.9948 137.356 86.1188 137.776 86.1188 138.296C86.1188 138.744 86.0028 139.16 85.7708 139.544C85.5388 139.928 85.1988 140.236 84.7508 140.468C84.3028 140.692 83.7708 140.804 83.1548 140.804ZM91.6313 132.344V137.528C91.6313 138.096 91.7793 138.532 92.0753 138.836C92.3713 139.132 92.7873 139.28 93.3233 139.28C93.8673 139.28 94.2873 139.132 94.5833 138.836C94.8793 138.532 95.0273 138.096 95.0273 137.528V132.344H96.7193V137.516C96.7193 138.228 96.5633 138.832 96.2513 139.328C95.9473 139.816 95.5353 140.184 95.0153 140.432C94.5033 140.68 93.9313 140.804 93.2993 140.804C92.6753 140.804 92.1073 140.68 91.5953 140.432C91.0913 140.184 90.6913 139.816 90.3953 139.328C90.0993 138.832 89.9513 138.228 89.9513 137.516V132.344H91.6313ZM100.334 136.52C100.334 135.696 100.518 134.96 100.886 134.312C101.262 133.656 101.77 133.148 102.41 132.788C103.058 132.42 103.782 132.236 104.582 132.236C105.518 132.236 106.338 132.476 107.042 132.956C107.746 133.436 108.238 134.1 108.518 134.948H106.586C106.394 134.548 106.122 134.248 105.77 134.048C105.426 133.848 105.026 133.748 104.57 133.748C104.082 133.748 103.646 133.864 103.262 134.096C102.886 134.32 102.59 134.64 102.374 135.056C102.166 135.472 102.062 135.96 102.062 136.52C102.062 137.072 102.166 137.56 102.374 137.984C102.59 138.4 102.886 138.724 103.262 138.956C103.646 139.18 104.082 139.292 104.57 139.292C105.026 139.292 105.426 139.192 105.77 138.992C106.122 138.784 106.394 138.48 106.586 138.08H108.518C108.238 138.936 107.746 139.604 107.042 140.084C106.346 140.556 105.526 140.792 104.582 140.792C103.782 140.792 103.058 140.612 102.41 140.252C101.77 139.884 101.262 139.376 100.886 138.728C100.518 138.08 100.334 137.344 100.334 136.52ZM111.945 136.52C111.945 135.696 112.129 134.96 112.497 134.312C112.873 133.656 113.381 133.148 114.021 132.788C114.669 132.42 115.393 132.236 116.193 132.236C117.129 132.236 117.949 132.476 118.653 132.956C119.357 133.436 119.849 134.1 120.129 134.948H118.197C118.005 134.548 117.733 134.248 117.381 134.048C117.037 133.848 116.637 133.748 116.181 133.748C115.693 133.748 115.257 133.864 114.873 134.096C114.497 134.32 114.201 134.64 113.985 135.056C113.777 135.472 113.673 135.96 113.673 136.52C113.673 137.072 113.777 137.56 113.985 137.984C114.201 138.4 114.497 138.724 114.873 138.956C115.257 139.18 115.693 139.292 116.181 139.292C116.637 139.292 117.037 139.192 117.381 138.992C117.733 138.784 118.005 138.48 118.197 138.08H120.129C119.849 138.936 119.357 139.604 118.653 140.084C117.957 140.556 117.137 140.792 116.193 140.792C115.393 140.792 114.669 140.612 114.021 140.252C113.381 139.884 112.873 139.376 112.497 138.728C112.129 138.08 111.945 137.344 111.945 136.52ZM125.644 133.7V135.8H128.464V137.132H125.644V139.352H128.824V140.72H123.964V132.332H128.824V133.7H125.644ZM135.643 140.804C135.059 140.804 134.531 140.704 134.059 140.504C133.595 140.304 133.227 140.016 132.955 139.64C132.683 139.264 132.543 138.82 132.535 138.308H134.335C134.359 138.652 134.479 138.924 134.695 139.124C134.919 139.324 135.223 139.424 135.607 139.424C135.999 139.424 136.307 139.332 136.531 139.148C136.755 138.956 136.867 138.708 136.867 138.404C136.867 138.156 136.791 137.952 136.639 137.792C136.487 137.632 136.295 137.508 136.063 137.42C135.839 137.324 135.527 137.22 135.127 137.108C134.583 136.948 134.139 136.792 133.795 136.64C133.459 136.48 133.167 136.244 132.919 135.932C132.679 135.612 132.559 135.188 132.559 134.66C132.559 134.164 132.683 133.732 132.931 133.364C133.179 132.996 133.527 132.716 133.975 132.524C134.423 132.324 134.935 132.224 135.511 132.224C136.375 132.224 137.075 132.436 137.611 132.86C138.155 133.276 138.455 133.86 138.511 134.612H136.663C136.647 134.324 136.523 134.088 136.291 133.904C136.067 133.712 135.767 133.616 135.391 133.616C135.063 133.616 134.799 133.7 134.599 133.868C134.407 134.036 134.311 134.28 134.311 134.6C134.311 134.824 134.383 135.012 134.527 135.164C134.679 135.308 134.863 135.428 135.079 135.524C135.303 135.612 135.615 135.716 136.015 135.836C136.559 135.996 137.003 136.156 137.347 136.316C137.691 136.476 137.987 136.716 138.235 137.036C138.483 137.356 138.607 137.776 138.607 138.296C138.607 138.744 138.491 139.16 138.259 139.544C138.027 139.928 137.687 140.236 137.239 140.468C136.791 140.692 136.259 140.804 135.643 140.804ZM145.356 140.804C144.772 140.804 144.244 140.704 143.772 140.504C143.308 140.304 142.94 140.016 142.668 139.64C142.396 139.264 142.256 138.82 142.248 138.308H144.048C144.072 138.652 144.192 138.924 144.408 139.124C144.632 139.324 144.936 139.424 145.32 139.424C145.712 139.424 146.02 139.332 146.244 139.148C146.468 138.956 146.58 138.708 146.58 138.404C146.58 138.156 146.504 137.952 146.352 137.792C146.2 137.632 146.008 137.508 145.776 137.42C145.552 137.324 145.24 137.22 144.84 137.108C144.296 136.948 143.852 136.792 143.508 136.64C143.172 136.48 142.88 136.244 142.632 135.932C142.392 135.612 142.272 135.188 142.272 134.66C142.272 134.164 142.396 133.732 142.644 133.364C142.892 132.996 143.24 132.716 143.688 132.524C144.136 132.324 144.648 132.224 145.224 132.224C146.088 132.224 146.788 132.436 147.324 132.86C147.868 133.276 148.168 133.86 148.224 134.612H146.376C146.36 134.324 146.236 134.088 146.004 133.904C145.78 133.712 145.48 133.616 145.104 133.616C144.776 133.616 144.512 133.7 144.312 133.868C144.12 134.036 144.024 134.28 144.024 134.6C144.024 134.824 144.096 135.012 144.24 135.164C144.392 135.308 144.576 135.428 144.792 135.524C145.016 135.612 145.328 135.716 145.728 135.836C146.272 135.996 146.716 136.156 147.06 136.316C147.404 136.476 147.7 136.716 147.948 137.036C148.196 137.356 148.32 137.776 148.32 138.296C148.32 138.744 148.204 139.16 147.972 139.544C147.74 139.928 147.4 140.236 146.952 140.468C146.504 140.692 145.972 140.804 145.356 140.804Z" fill="#666E82"/>
</g>
<defs>
<filter id="filter0_d_279_144" x="0.0507812" y="0.219849" width="228" height="228" filterUnits="userSpaceOnUse" color-interpolation-filters="sRGB">
<feFlood flood-opacity="0" result="BackgroundImageFix"/>
<feColorMatrix in="SourceAlpha" type="matrix" values="0 0 0 0 0 0 0 0 0 0 0 0 0 0 0 0 0 0 127 0" result="hardAlpha"/>
<feMorphology radius="18" operator="dilate" in="SourceAlpha" result="effect1_dropShadow_279_144"/>
<feOffset/>
<feComposite in2="hardAlpha" operator="out"/>
<feColorMatrix type="matrix" values="0 0 0 0 1 0 0 0 0 1 0 0 0 0 1 0 0 0 1 0"/>
<feBlend mode="normal" in2="BackgroundImageFix" result="effect1_dropShadow_279_144"/>
<feBlend mode="normal" in="SourceGraphic" in2="effect1_dropShadow_279_144" result="shape"/>
</filter>
</defs>
</svg>
