<svg width="229" height="229" viewBox="0 0 229 229" fill="none" xmlns="http://www.w3.org/2000/svg">
<g filter="url(#filter0_d_279_148)">
<rect x="18.2344" y="18.2198" width="192" height="192" rx="96" fill="white" fill-opacity="0.01" shape-rendering="crispEdges"/>
<rect x="23.2344" y="23.2198" width="182" height="182" rx="91" stroke="#283592" stroke-width="10" stroke-dasharray="3 2" shape-rendering="crispEdges"/>
<path d="M78.7406 101.92V99.7998L93.3006 80.1998H96.6206V99.4798H100.901V101.92H96.6206V108.72H93.8606V101.92H78.7406ZM93.9806 83.2798L81.9806 99.4798H93.9806V83.2798ZM103.272 101.92V99.7998L117.832 80.1998H121.152V99.4798H125.432V101.92H121.152V108.72H118.392V101.92H103.272ZM118.512 83.2798L106.512 99.4798H118.512V83.2798ZM134.603 93.8398C132.95 93.3065 131.683 92.4665 130.803 91.3198C129.95 90.1732 129.523 88.7865 129.523 87.1598C129.523 85.7198 129.883 84.4398 130.603 83.3198C131.35 82.1732 132.43 81.2798 133.843 80.6398C135.256 79.9732 136.95 79.6398 138.923 79.6398C140.896 79.6398 142.59 79.9732 144.003 80.6398C145.416 81.2798 146.483 82.1732 147.203 83.3198C147.95 84.4398 148.323 85.7198 148.323 87.1598C148.323 88.7598 147.883 90.1465 147.003 91.3198C146.15 92.4932 144.896 93.3332 143.243 93.8398C145.056 94.2932 146.483 95.1598 147.523 96.4398C148.563 97.7198 149.083 99.2798 149.083 101.12C149.083 102.827 148.656 104.32 147.803 105.6C146.976 106.853 145.79 107.827 144.243 108.52C142.723 109.213 140.95 109.56 138.923 109.56C136.896 109.56 135.11 109.213 133.563 108.52C132.043 107.827 130.856 106.853 130.003 105.6C129.176 104.32 128.763 102.827 128.763 101.12C128.763 99.2798 129.283 97.7198 130.323 96.4398C131.363 95.1598 132.79 94.2932 134.603 93.8398ZM145.603 87.4798C145.603 85.7198 145.003 84.3598 143.803 83.3998C142.603 82.4398 140.976 81.9598 138.923 81.9598C136.87 81.9598 135.243 82.4398 134.043 83.3998C132.843 84.3332 132.243 85.6932 132.243 87.4798C132.243 89.1332 132.856 90.4532 134.083 91.4398C135.31 92.4265 136.923 92.9198 138.923 92.9198C140.923 92.9198 142.536 92.4265 143.763 91.4398C144.99 90.4532 145.603 89.1332 145.603 87.4798ZM138.923 95.0798C136.736 95.0798 134.95 95.5732 133.563 96.5598C132.176 97.5465 131.483 99.0398 131.483 101.04C131.483 102.96 132.15 104.467 133.483 105.56C134.816 106.653 136.63 107.2 138.923 107.2C141.19 107.2 142.99 106.653 144.323 105.56C145.656 104.44 146.323 102.933 146.323 101.04C146.323 99.0665 145.63 97.5865 144.243 96.5998C142.883 95.5865 141.11 95.0798 138.923 95.0798Z" fill="#283592"/>
<path d="M87.8032 139.124H84.4672L83.9152 140.72H82.1512L85.1632 132.332H87.1192L90.1312 140.72H88.3552L87.8032 139.124ZM87.3472 137.78L86.1352 134.276L84.9232 137.78H87.3472ZM104.853 132.344L102.513 140.72H100.533L98.961 134.756L97.317 140.72L95.349 140.732L93.093 132.344H94.893L96.369 138.848L98.073 132.344H99.945L101.553 138.812L103.041 132.344H104.853ZM113.486 139.124H110.15L109.598 140.72H107.834L110.846 132.332H112.802L115.814 140.72H114.038L113.486 139.124ZM113.03 137.78L111.818 134.276L110.606 137.78H113.03ZM123.66 140.72L121.812 137.456H121.02V140.72H119.34V132.344H122.484C123.132 132.344 123.684 132.46 124.14 132.692C124.596 132.916 124.936 133.224 125.16 133.616C125.392 134 125.508 134.432 125.508 134.912C125.508 135.464 125.348 135.964 125.028 136.412C124.708 136.852 124.232 137.156 123.6 137.324L125.604 140.72H123.66ZM121.02 136.196H122.424C122.88 136.196 123.22 136.088 123.444 135.872C123.668 135.648 123.78 135.34 123.78 134.948C123.78 134.564 123.668 134.268 123.444 134.06C123.22 133.844 122.88 133.736 122.424 133.736H121.02V136.196ZM132.355 132.344C133.235 132.344 134.007 132.516 134.671 132.86C135.343 133.204 135.859 133.696 136.219 134.336C136.587 134.968 136.771 135.704 136.771 136.544C136.771 137.384 136.587 138.12 136.219 138.752C135.859 139.376 135.343 139.86 134.671 140.204C134.007 140.548 133.235 140.72 132.355 140.72H129.427V132.344H132.355ZM132.295 139.292C133.175 139.292 133.855 139.052 134.335 138.572C134.815 138.092 135.055 137.416 135.055 136.544C135.055 135.672 134.815 134.992 134.335 134.504C133.855 134.008 133.175 133.76 132.295 133.76H131.107V139.292H132.295ZM143.321 140.804C142.737 140.804 142.209 140.704 141.737 140.504C141.273 140.304 140.905 140.016 140.633 139.64C140.361 139.264 140.221 138.82 140.213 138.308H142.013C142.037 138.652 142.157 138.924 142.373 139.124C142.597 139.324 142.901 139.424 143.285 139.424C143.677 139.424 143.985 139.332 144.209 139.148C144.433 138.956 144.545 138.708 144.545 138.404C144.545 138.156 144.469 137.952 144.317 137.792C144.165 137.632 143.973 137.508 143.741 137.42C143.517 137.324 143.205 137.22 142.805 137.108C142.261 136.948 141.817 136.792 141.473 136.64C141.137 136.48 140.845 136.244 140.597 135.932C140.357 135.612 140.237 135.188 140.237 134.66C140.237 134.164 140.361 133.732 140.609 133.364C140.857 132.996 141.205 132.716 141.653 132.524C142.101 132.324 142.613 132.224 143.189 132.224C144.053 132.224 144.753 132.436 145.289 132.86C145.833 133.276 146.133 133.86 146.189 134.612H144.341C144.325 134.324 144.201 134.088 143.969 133.904C143.745 133.712 143.445 133.616 143.069 133.616C142.741 133.616 142.477 133.7 142.277 133.868C142.085 134.036 141.989 134.28 141.989 134.6C141.989 134.824 142.061 135.012 142.205 135.164C142.357 135.308 142.541 135.428 142.757 135.524C142.981 135.612 143.293 135.716 143.693 135.836C144.237 135.996 144.681 136.156 145.025 136.316C145.369 136.476 145.665 136.716 145.913 137.036C146.161 137.356 146.285 137.776 146.285 138.296C146.285 138.744 146.169 139.16 145.937 139.544C145.705 139.928 145.365 140.236 144.917 140.468C144.469 140.692 143.937 140.804 143.321 140.804Z" fill="#666E82"/>
</g>
<defs>
<filter id="filter0_d_279_148" x="0.234375" y="0.219849" width="228" height="228" filterUnits="userSpaceOnUse" color-interpolation-filters="sRGB">
<feFlood flood-opacity="0" result="BackgroundImageFix"/>
<feColorMatrix in="SourceAlpha" type="matrix" values="0 0 0 0 0 0 0 0 0 0 0 0 0 0 0 0 0 0 127 0" result="hardAlpha"/>
<feMorphology radius="18" operator="dilate" in="SourceAlpha" result="effect1_dropShadow_279_148"/>
<feOffset/>
<feComposite in2="hardAlpha" operator="out"/>
<feColorMatrix type="matrix" values="0 0 0 0 1 0 0 0 0 1 0 0 0 0 1 0 0 0 1 0"/>
<feBlend mode="normal" in2="BackgroundImageFix" result="effect1_dropShadow_279_148"/>
<feBlend mode="normal" in="SourceGraphic" in2="effect1_dropShadow_279_148" result="shape"/>
</filter>
</defs>
</svg>
