<svg width="15" height="9" viewBox="0 0 15 9" fill="none" xmlns="http://www.w3.org/2000/svg">
<path fill-rule="evenodd" clip-rule="evenodd" d="M0.537229 0.787529C0.710341 0.614631 0.945003 0.517517 1.18967 0.517517C1.43433 0.517517 1.669 0.614631 1.84211 0.787529L7.34477 6.28895L12.8474 0.786298C13.0216 0.618198 13.2549 0.525247 13.497 0.527464C13.739 0.529681 13.9706 0.626889 14.1417 0.798151C14.3128 0.969413 14.4098 1.20103 14.4117 1.4431C14.4137 1.68518 14.3206 1.91836 14.1523 2.09241L7.99721 8.24751C7.82409 8.4204 7.58943 8.51752 7.34477 8.51752C7.1001 8.51752 6.86544 8.4204 6.69233 8.24751L0.537229 2.09241C0.451433 2.00667 0.383373 1.90486 0.336937 1.79281C0.290502 1.68075 0.266602 1.56065 0.266602 1.43935C0.266602 1.31806 0.290502 1.19795 0.336937 1.0859C0.383373 0.973845 0.451433 0.872038 0.537229 0.786298V0.787529Z" fill="black"/>
</svg>
